<?xml version="1.0" encoding="utf-8"?>
<!-- Generator: Adobe Illustrator 24.0.1, SVG Export Plug-In . SVG Version: 6.00 Build 0)  -->
<svg version="1.1" id="Layer_1" xmlns="http://www.w3.org/2000/svg" xmlns:xlink="http://www.w3.org/1999/xlink" x="0px" y="0px"
	 viewBox="0 0 250 100" style="enable-background:new 0 0 250 100;" xml:space="preserve">
<style type="text/css">
	.st0{fill:#ED3567;}
	.st1{fill:#FFFFFF;}
	.st2{fill:#562E86;}
	.st3{fill:#EF5123;}
</style>
<g>
	<path class="st0" d="M180.36,188.57l-21.45,63.22v-53.37c1.15,0,2.32-0.18,3.43-0.53L180.36,188.57z"/>
	<path class="st1" d="M158.92,198.41v53.37l-21.45-63.22l18.02,9.32C156.6,198.23,157.75,198.41,158.92,198.41"/>
	<path class="st2" d="M158.92,216.74c-7.72,0-14-7.57-14-16.87h2.05c0,8.17,5.36,14.82,11.95,14.82c6.59,0,11.95-6.65,11.95-14.82
		h2.05C172.92,209.17,166.64,216.74,158.92,216.74"/>
	<path class="st2" d="M146.49,199.11h-1.1c-0.29,0-0.52-0.23-0.52-0.51v-1.65c0-0.28,0.23-0.51,0.52-0.51h1.1
		c0.28,0,0.51,0.23,0.51,0.51v1.65C147.01,198.88,146.77,199.11,146.49,199.11"/>
	<path class="st2" d="M172.45,199.11h-1.1c-0.28,0-0.52-0.23-0.52-0.51v-1.65c0-0.28,0.23-0.51,0.52-0.51h1.1
		c0.28,0,0.51,0.23,0.51,0.51v1.65C172.96,198.88,172.73,199.11,172.45,199.11"/>
	<polygon class="st3" points="185.99,255.7 131.29,255.7 137.62,240.34 152.92,240.34 158.92,253.13 165.35,240.34 181.01,240.34 	
		"/>
	<path class="st1" d="M213.11,196.15c1.46,0,2.74,0.22,3.85,0.64c1.11,0.43,2.03,0.97,2.77,1.62c0.74,0.64,1.3,1.35,1.68,2.13
		c0.38,0.78,0.59,1.51,0.64,2.21c0.02,0.29-0.06,0.52-0.24,0.7c-0.19,0.18-0.4,0.27-0.64,0.27h-2.28c-0.37,0-0.65-0.08-0.83-0.23
		c-0.19-0.16-0.35-0.36-0.51-0.62c-0.33-0.6-0.82-1.12-1.48-1.56c-0.66-0.44-1.64-0.66-2.95-0.66c-0.57,0-1.1,0.07-1.61,0.2
		c-0.51,0.13-0.95,0.32-1.34,0.57c-0.38,0.25-0.68,0.56-0.9,0.91c-0.22,0.36-0.33,0.76-0.33,1.22c0,0.55,0.1,1,0.31,1.34
		c0.21,0.35,0.56,0.65,1.04,0.89c0.49,0.25,1.13,0.49,1.94,0.7c0.8,0.22,1.8,0.47,2.99,0.75c1.31,0.31,2.43,0.67,3.38,1.09
		c0.94,0.42,1.72,0.92,2.31,1.51c0.6,0.59,1.05,1.26,1.34,2.02c0.29,0.76,0.44,1.64,0.44,2.62c0,1.08-0.22,2.07-0.65,2.99
		c-0.43,0.92-1.05,1.71-1.86,2.37c-0.8,0.66-1.79,1.18-2.96,1.56c-1.18,0.38-2.49,0.57-3.94,0.57c-1.22,0-2.38-0.16-3.49-0.48
		c-1.11-0.33-2.09-0.79-2.95-1.4c-0.86-0.61-1.55-1.34-2.07-2.2c-0.52-0.86-0.82-1.82-0.88-2.87c-0.02-0.29,0.06-0.52,0.24-0.7
		c0.18-0.18,0.4-0.27,0.64-0.27h2.28c0.37,0,0.65,0.07,0.84,0.22c0.2,0.14,0.36,0.36,0.49,0.64c0.15,0.31,0.33,0.62,0.55,0.93
		c0.22,0.31,0.51,0.59,0.88,0.83c0.37,0.24,0.83,0.43,1.38,0.59c0.56,0.15,1.24,0.23,2.07,0.23c0.65,0,1.28-0.06,1.89-0.16
		c0.61-0.11,1.14-0.29,1.6-0.54c0.46-0.25,0.83-0.56,1.11-0.93c0.28-0.37,0.42-0.83,0.42-1.38c0-0.53-0.15-0.96-0.46-1.29
		c-0.3-0.34-0.76-0.62-1.39-0.86c-0.62-0.24-1.38-0.46-2.3-0.68c-0.91-0.22-1.97-0.49-3.16-0.83c-1.09-0.29-2.04-0.62-2.85-1.02
		c-0.81-0.39-1.49-0.88-2.02-1.45c-0.53-0.57-0.93-1.25-1.19-2.03c-0.26-0.78-0.39-1.7-0.39-2.78c0-1.08,0.21-2.07,0.65-2.98
		c0.44-0.91,1.03-1.69,1.8-2.33c0.76-0.64,1.67-1.15,2.72-1.52C210.75,196.34,211.89,196.15,213.11,196.15"/>
	<path class="st1" d="M236.99,197.37c6.8,0,12.15,5.41,12.15,12.31c0,6.91-5.34,12.35-12.15,12.35c-6.81,0-12.15-5.44-12.15-12.35
		C224.84,202.78,230.18,197.37,236.99,197.37 M237.09,217.64c4.53,0,7.69-3.81,7.69-7.95c0-4.14-3.16-7.91-7.69-7.91
		c-4.53,0-7.88,3.78-7.88,7.91C229.2,213.82,232.56,217.64,237.09,217.64"/>
	<path class="st1" d="M270.2,204.02c0,1.53-0.75,2.93-1.59,3.97c1.82,1.53,3.03,3.42,3.03,5.83c0,4.43-3.52,7.79-8.28,7.79h-11.59
		v-23.98h11.59C267.27,197.63,270.2,200.37,270.2,204.02 M265.83,204.12c0-1.14-0.94-2.09-2.08-2.09h-7.62v4.17h7.62
		C264.89,206.2,265.83,205.26,265.83,204.12 M267.27,213.83c0-1.86-1.53-3.39-3.39-3.39h-7.75v6.77h7.75
		C265.74,217.21,267.27,215.68,267.27,213.83"/>
	<polygon class="st1" points="278.61,215.94 278.61,221.61 274.25,221.61 274.25,197.63 278.61,197.63 278.61,209.82 290.11,197.63 
		295.88,197.63 287.05,207.08 297.05,221.61 291.71,221.61 284.06,210.47 	"/>
	<rect x="299.02" y="197.63" class="st1" width="4.36" height="23.98"/>
	<path class="st1" d="M315.38,196.15c1.46,0,2.74,0.22,3.85,0.64c1.11,0.43,2.03,0.97,2.77,1.62c0.74,0.64,1.3,1.35,1.68,2.13
		c0.38,0.78,0.59,1.51,0.64,2.21c0.02,0.29-0.06,0.52-0.24,0.7c-0.19,0.18-0.4,0.27-0.64,0.27h-2.28c-0.37,0-0.65-0.08-0.83-0.23
		c-0.18-0.16-0.35-0.36-0.5-0.62c-0.33-0.6-0.82-1.12-1.48-1.56c-0.66-0.44-1.65-0.66-2.95-0.66c-0.57,0-1.1,0.07-1.61,0.2
		c-0.51,0.13-0.96,0.32-1.34,0.57c-0.38,0.25-0.68,0.56-0.9,0.91c-0.22,0.36-0.33,0.76-0.33,1.22c0,0.55,0.1,1,0.31,1.34
		c0.21,0.35,0.56,0.65,1.04,0.89c0.49,0.25,1.13,0.49,1.94,0.7c0.8,0.22,1.8,0.47,3,0.75c1.3,0.31,2.43,0.67,3.37,1.09
		c0.95,0.42,1.72,0.92,2.31,1.51c0.6,0.59,1.04,1.26,1.34,2.02c0.29,0.76,0.44,1.64,0.44,2.62c0,1.08-0.22,2.07-0.65,2.99
		c-0.43,0.92-1.06,1.71-1.86,2.37c-0.8,0.66-1.79,1.18-2.96,1.56c-1.17,0.38-2.49,0.57-3.94,0.57c-1.22,0-2.38-0.16-3.49-0.48
		c-1.1-0.33-2.09-0.79-2.95-1.4c-0.86-0.61-1.55-1.34-2.07-2.2c-0.52-0.86-0.81-1.82-0.88-2.87c-0.02-0.29,0.06-0.52,0.25-0.7
		c0.18-0.18,0.4-0.27,0.64-0.27h2.28c0.37,0,0.65,0.07,0.85,0.22c0.19,0.14,0.36,0.36,0.49,0.64c0.15,0.31,0.34,0.62,0.56,0.93
		c0.22,0.31,0.51,0.59,0.88,0.83c0.37,0.24,0.83,0.43,1.38,0.59c0.56,0.15,1.24,0.23,2.07,0.23c0.65,0,1.28-0.06,1.89-0.16
		c0.61-0.11,1.14-0.29,1.6-0.54c0.46-0.25,0.83-0.56,1.11-0.93c0.28-0.37,0.42-0.83,0.42-1.38c0-0.53-0.15-0.96-0.46-1.29
		c-0.3-0.34-0.76-0.62-1.39-0.86c-0.62-0.24-1.39-0.46-2.3-0.68c-0.91-0.22-1.96-0.49-3.16-0.83c-1.09-0.29-2.04-0.62-2.85-1.02
		c-0.81-0.39-1.49-0.88-2.02-1.45c-0.53-0.57-0.93-1.25-1.19-2.03c-0.26-0.78-0.39-1.7-0.39-2.78c0-1.08,0.22-2.07,0.65-2.98
		c0.44-0.91,1.03-1.69,1.79-2.33c0.76-0.64,1.67-1.15,2.72-1.52C313.03,196.34,314.16,196.15,315.38,196.15"/>
	<path class="st1" d="M338.45,217.64c4.53,0,6.12-3.81,6.12-7.95v-12.05h4.36v12.05c0,6.91-3.78,12.35-10.59,12.35
		c-6.81,0-10.59-5.44-10.59-12.35v-12.05h4.36v12.05C332.13,213.82,333.92,217.64,338.45,217.64"/>
	<path class="st3" d="M218.41,235.4c0,1.06-0.52,2.02-1.1,2.74c1.26,1.06,2.09,2.36,2.09,4.03c0,3.06-2.43,5.37-5.71,5.37h-8v-16.55
		h8C216.38,230.99,218.41,232.88,218.41,235.4 M215.39,235.47c0-0.79-0.65-1.44-1.44-1.44h-5.26v2.88h5.26
		C214.74,236.9,215.39,236.25,215.39,235.47 M216.38,242.17c0-1.28-1.06-2.34-2.34-2.34h-5.35v4.68h5.35
		C215.32,244.51,216.38,243.45,216.38,242.17"/>
	<path class="st3" d="M241.39,244.84l-0.99,2.7h-3.24l6.03-16.55h3.22l6.05,16.55h-3.08l-0.99-2.7H241.39z M244.87,235.29
		l-2.36,6.52h4.77L244.87,235.29z"/>
	<polygon class="st3" points="275.18,244.51 283.93,244.51 283.93,247.54 270.23,247.54 270.23,246.42 278.95,234.03 270.23,234.03 
		270.23,230.99 283.93,230.99 283.93,232.14 	"/>
	<path class="st3" d="M305.93,244.84l-0.99,2.7h-3.24l6.03-16.55h3.22l6.05,16.55h-3.08l-0.99-2.7H305.93z M309.42,235.29
		l-2.36,6.52h4.77L309.42,235.29z"/>
	<path class="st3" d="M337.31,247.54h-3.01v-16.55h8.28c3.12,0,5.69,2.52,5.69,5.6c0,2.36-1.53,4.38-3.65,5.19l4.32,5.76h-3.82
		l-4.03-5.37h-3.78V247.54z M345.25,236.59c0-1.42-1.15-2.56-2.56-2.56h-5.37v5.11h5.37C344.11,239.13,345.25,238.01,345.25,236.59"
		/>
	<polyline class="st1" points="198.24,180 198.24,255.95 197.52,255.95 197.52,180 	"/>
	<path class="st1" d="M190.88,183.69c0,1.71-1.38,3.09-3.09,3.09c-1.7,0-3.09-1.38-3.09-3.09c0-1.7,1.38-3.09,3.09-3.09
		C189.5,180.6,190.88,181.99,190.88,183.69"/>
	<path class="st1" d="M135.07,268.62l-0.58,1.31h-1.04l2.54-5.77h1.04l2.55,5.77h-1.04l-0.58-1.31H135.07z M137.57,267.72
		l-1.05-2.38l-1.05,2.38H137.57z"/>
	<polygon class="st1" points="148.13,265.05 148.13,269.93 147.16,269.93 147.16,265.05 145.4,265.05 145.4,264.16 149.88,264.16 
		149.88,265.05 	"/>
	<path class="st1" d="M157.2,266.04c0,0.95-0.41,1.55-1.25,1.8l1.51,2.1h-1.24l-1.38-1.94h-1.28v1.94h-0.97v-5.77h2.15
		c0.88,0,1.51,0.15,1.89,0.45C157.01,264.91,157.2,265.38,157.2,266.04 M155.9,266.85c0.2-0.17,0.3-0.45,0.3-0.82
		s-0.1-0.64-0.3-0.78c-0.21-0.14-0.57-0.21-1.09-0.21h-1.24v2.07h1.21C155.33,267.11,155.7,267.02,155.9,266.85"/>
	<path class="st1" d="M161.55,268.61c0.26,0.31,0.62,0.46,1.07,0.46s0.81-0.15,1.07-0.46c0.26-0.31,0.4-0.73,0.4-1.26v-3.2h0.97
		v3.24c0,0.83-0.23,1.47-0.68,1.92c-0.46,0.45-1.04,0.68-1.76,0.68c-0.72,0-1.3-0.23-1.76-0.68c-0.46-0.45-0.68-1.09-0.68-1.92
		v-3.24h0.97v3.2C161.15,267.89,161.29,268.3,161.55,268.61"/>
	<path class="st1" d="M170,264.92c-0.28,0-0.52,0.06-0.7,0.18c-0.18,0.11-0.27,0.29-0.27,0.52c0,0.24,0.09,0.41,0.27,0.54
		c0.18,0.13,0.57,0.26,1.16,0.4c0.59,0.14,1.04,0.35,1.34,0.6c0.3,0.26,0.45,0.64,0.45,1.14c0,0.51-0.19,0.91-0.57,1.23
		c-0.38,0.31-0.88,0.47-1.5,0.47c-0.9,0-1.7-0.31-2.4-0.93l0.61-0.73c0.58,0.51,1.19,0.76,1.82,0.76c0.31,0,0.56-0.07,0.75-0.2
		c0.18-0.14,0.28-0.32,0.28-0.54c0-0.22-0.09-0.4-0.26-0.52c-0.17-0.13-0.47-0.24-0.89-0.34c-0.43-0.1-0.75-0.19-0.97-0.28
		c-0.22-0.09-0.41-0.2-0.59-0.33c-0.34-0.26-0.51-0.65-0.51-1.19c0-0.53,0.19-0.94,0.58-1.23c0.39-0.29,0.87-0.43,1.44-0.43
		c0.37,0,0.73,0.06,1.1,0.18c0.36,0.12,0.68,0.29,0.94,0.51l-0.52,0.74c-0.17-0.15-0.4-0.28-0.7-0.38
		C170.57,264.97,170.28,264.92,170,264.92"/>
	<polygon class="st1" points="177.29,265.05 177.29,269.93 176.31,269.93 176.31,265.05 174.56,265.05 174.56,264.16 179.04,264.16 
		179.04,265.05 	"/>
	<polygon class="st1" points="185.8,264.16 185.8,265.08 182.72,265.08 182.72,266.61 185.49,266.61 185.49,267.47 182.72,267.47 
		182.72,269.02 185.9,269.02 185.9,269.93 181.75,269.93 181.75,264.16 	"/>
	<path class="st1" d="M193.17,264.92c0.56,0.5,0.83,1.2,0.83,2.1c0,0.9-0.27,1.61-0.81,2.13c-0.54,0.52-1.37,0.78-2.48,0.78h-1.92
		v-5.77h1.98C191.82,264.16,192.61,264.41,193.17,264.92 M193.02,267.04c0-1.32-0.76-1.98-2.27-1.98h-0.97v3.96h1.08
		c0.7,0,1.23-0.17,1.61-0.5C192.83,268.18,193.02,267.69,193.02,267.04"/>
	<polygon class="st1" points="204.88,264.16 204.88,265.08 201.8,265.08 201.8,266.61 204.57,266.61 204.57,267.47 201.8,267.47 
		201.8,269.02 204.98,269.02 204.98,269.93 200.83,269.93 200.83,264.16 	"/>
	<path class="st1" d="M210.52,269.05c0.33,0,0.62-0.06,0.87-0.17c0.24-0.11,0.5-0.29,0.76-0.54l0.63,0.64
		c-0.61,0.68-1.35,1.01-2.23,1.01c-0.87,0-1.6-0.28-2.17-0.84c-0.58-0.56-0.86-1.27-0.86-2.13s0.29-1.58,0.88-2.15
		c0.59-0.57,1.32-0.86,2.22-0.86c0.89,0,1.64,0.33,2.24,0.99l-0.62,0.68c-0.28-0.26-0.54-0.45-0.78-0.55
		c-0.24-0.1-0.53-0.16-0.86-0.16c-0.58,0-1.07,0.19-1.47,0.57c-0.4,0.38-0.59,0.86-0.59,1.45c0,0.59,0.2,1.08,0.59,1.47
		C209.51,268.85,209.98,269.05,210.52,269.05"/>
	<path class="st1" d="M220.32,269.14c-0.58,0.57-1.31,0.85-2.17,0.85c-0.86,0-1.58-0.28-2.16-0.85c-0.59-0.57-0.88-1.28-0.88-2.13
		c0-0.85,0.29-1.56,0.88-2.13c0.58-0.57,1.3-0.85,2.16-0.85c0.86,0,1.58,0.29,2.17,0.85c0.58,0.57,0.88,1.28,0.88,2.13
		C221.19,267.86,220.9,268.57,220.32,269.14 M219.6,265.52c-0.39-0.41-0.88-0.61-1.45-0.61s-1.06,0.2-1.45,0.61
		c-0.39,0.41-0.59,0.9-0.59,1.48c0,0.58,0.2,1.07,0.59,1.48c0.39,0.41,0.88,0.61,1.45,0.61s1.06-0.2,1.45-0.61
		c0.39-0.41,0.59-0.9,0.59-1.48C220.19,266.42,220,265.93,219.6,265.52"/>
	<polygon class="st1" points="225.05,269.93 224.08,269.93 224.08,264.16 225.6,264.16 227.34,267.79 229.08,264.16 230.59,264.16 
		230.59,269.93 229.62,269.93 229.62,265.42 227.6,269.43 227.06,269.43 225.05,265.42 	"/>
	<polygon class="st1" points="234.82,269.93 233.85,269.93 233.85,264.16 235.37,264.16 237.11,267.79 238.85,264.16 240.36,264.16 
		240.36,269.93 239.39,269.93 239.39,265.42 237.37,269.43 236.83,269.43 234.82,265.42 	"/>
	<polygon class="st1" points="247.67,264.16 247.67,265.08 244.59,265.08 244.59,266.61 247.36,266.61 247.36,267.47 244.59,267.47 
		244.59,269.02 247.77,269.02 247.77,269.93 243.62,269.93 243.62,264.16 	"/>
	<path class="st1" d="M255.28,266.04c0,0.95-0.42,1.55-1.25,1.8l1.51,2.1h-1.24l-1.38-1.94h-1.28v1.94h-0.97v-5.77h2.15
		c0.88,0,1.51,0.15,1.89,0.45C255.09,264.91,255.28,265.38,255.28,266.04 M253.98,266.85c0.2-0.17,0.3-0.45,0.3-0.82
		s-0.1-0.64-0.3-0.78c-0.21-0.14-0.57-0.21-1.09-0.21h-1.24v2.07h1.21C253.41,267.11,253.79,267.02,253.98,266.85"/>
	<path class="st1" d="M260.97,269.05c0.34,0,0.62-0.06,0.87-0.17c0.24-0.11,0.5-0.29,0.76-0.54l0.63,0.64
		c-0.61,0.68-1.35,1.01-2.23,1.01c-0.88,0-1.6-0.28-2.17-0.84c-0.57-0.56-0.86-1.27-0.86-2.13s0.29-1.58,0.88-2.15
		c0.59-0.57,1.33-0.86,2.22-0.86s1.64,0.33,2.24,0.99l-0.62,0.68c-0.28-0.26-0.53-0.45-0.78-0.55c-0.24-0.1-0.53-0.16-0.86-0.16
		c-0.58,0-1.07,0.19-1.47,0.57c-0.4,0.38-0.59,0.86-0.59,1.45c0,0.59,0.2,1.08,0.59,1.47C259.96,268.85,260.43,269.05,260.97,269.05
		"/>
	<polygon class="st1" points="270.12,264.16 270.12,265.08 267.04,265.08 267.04,266.61 269.81,266.61 269.81,267.47 267.04,267.47 
		267.04,269.02 270.22,269.02 270.22,269.93 266.07,269.93 266.07,264.16 	"/>
	<polygon class="st1" points="278.01,269.93 277.04,269.93 277.04,264.16 278.55,264.16 280.3,267.79 282.04,264.16 283.55,264.16 
		283.55,269.93 282.58,269.93 282.58,265.42 280.56,269.43 280.02,269.43 278.01,265.42 	"/>
	<path class="st1" d="M287.63,268.62l-0.58,1.31h-1.04l2.54-5.77h1.04l2.55,5.77h-1.04l-0.58-1.31H287.63z M290.12,267.72
		l-1.05-2.38l-1.05,2.38H290.12z"/>
	<path class="st1" d="M299.2,266.04c0,0.95-0.42,1.55-1.25,1.8l1.51,2.1h-1.24l-1.38-1.94h-1.28v1.94h-0.97v-5.77h2.15
		c0.88,0,1.51,0.15,1.89,0.45C299.01,264.91,299.2,265.38,299.2,266.04 M297.9,266.85c0.2-0.17,0.3-0.45,0.3-0.82
		s-0.1-0.64-0.3-0.78c-0.21-0.14-0.57-0.21-1.09-0.21h-1.24v2.07h1.21C297.33,267.11,297.7,267.02,297.9,266.85"/>
	<polygon class="st1" points="302.25,264.16 303.23,264.16 303.23,266.98 305.87,264.16 307.11,264.16 304.79,266.69 307.14,269.93 
		305.99,269.93 304.07,267.41 303.23,268.32 303.23,269.93 302.25,269.93 	"/>
	<polygon class="st1" points="313.77,264.16 313.77,265.08 310.69,265.08 310.69,266.61 313.46,266.61 313.46,267.47 310.69,267.47 
		310.69,269.02 313.87,269.02 313.87,269.93 309.72,269.93 309.72,264.16 	"/>
	<polygon class="st1" points="318.95,265.05 318.95,269.93 317.98,269.93 317.98,265.05 316.23,265.05 316.23,264.16 320.71,264.16 
		320.71,265.05 	"/>
	<path class="st1" d="M327.31,264.66c0.4,0.34,0.6,0.86,0.6,1.55s-0.21,1.21-0.62,1.54c-0.41,0.33-1.04,0.49-1.89,0.49h-1.02v1.69
		h-0.97v-5.77h1.98C326.27,264.16,326.91,264.33,327.31,264.66 M326.62,267.05c0.19-0.21,0.29-0.51,0.29-0.91
		c0-0.4-0.12-0.68-0.37-0.85c-0.25-0.17-0.64-0.25-1.16-0.25h-0.99v2.31h1.13C326.06,267.36,326.43,267.25,326.62,267.05"/>
	<polygon class="st1" points="330.72,269.93 330.72,264.16 331.69,264.16 331.69,269.01 334.32,269.01 334.32,269.93 	"/>
	<path class="st1" d="M337.86,268.62l-0.58,1.31h-1.04l2.54-5.77h1.04l2.55,5.77h-1.04l-0.58-1.31H337.86z M340.35,267.72
		l-1.05-2.38l-1.05,2.38H340.35z"/>
	<path class="st1" d="M347.46,269.05c0.34,0,0.62-0.06,0.87-0.17c0.24-0.11,0.5-0.29,0.76-0.54l0.63,0.64
		c-0.61,0.68-1.35,1.01-2.23,1.01c-0.88,0-1.6-0.28-2.17-0.84c-0.57-0.56-0.86-1.27-0.86-2.13s0.29-1.58,0.88-2.15
		c0.59-0.57,1.33-0.86,2.22-0.86s1.64,0.33,2.24,0.99l-0.62,0.68c-0.28-0.26-0.53-0.45-0.78-0.55c-0.24-0.1-0.53-0.16-0.86-0.16
		c-0.58,0-1.07,0.19-1.47,0.57c-0.4,0.38-0.59,0.86-0.59,1.45c0,0.59,0.2,1.08,0.59,1.47C346.45,268.85,346.92,269.05,347.46,269.05
		"/>
	<polygon class="st1" points="356.61,264.16 356.61,265.08 353.53,265.08 353.53,266.61 356.29,266.61 356.29,267.47 353.53,267.47 
		353.53,269.02 356.71,269.02 356.71,269.93 352.55,269.93 352.55,264.16 	"/>
</g>
<g>
	<path class="st0" d="M61.36,13.57L39.92,76.78V23.41c1.15,0,2.32-0.18,3.43-0.53L61.36,13.57z"/>
	<path class="st2" d="M39.92,23.41v53.37L18.47,13.57l18.02,9.32C37.6,23.23,38.75,23.41,39.92,23.41"/>
	<path class="st1" d="M39.92,41.74c-7.72,0-14-7.57-14-16.87h2.05c0,8.17,5.36,14.82,11.95,14.82c6.59,0,11.95-6.65,11.95-14.82
		h2.05C53.92,34.17,47.64,41.74,39.92,41.74"/>
	<path class="st1" d="M27.49,24.11h-1.1c-0.29,0-0.52-0.23-0.52-0.51v-1.65c0-0.28,0.23-0.51,0.52-0.51h1.1
		c0.28,0,0.51,0.23,0.51,0.51v1.65C28.01,23.88,27.77,24.11,27.49,24.11"/>
	<path class="st1" d="M53.45,24.11h-1.1c-0.28,0-0.52-0.23-0.52-0.51v-1.65c0-0.28,0.23-0.51,0.52-0.51h1.1
		c0.28,0,0.51,0.23,0.51,0.51v1.65C53.96,23.88,53.73,24.11,53.45,24.11"/>
	<polygon class="st3" points="66.99,80.7 12.29,80.7 18.62,65.34 33.92,65.34 39.92,78.13 46.35,65.34 62.01,65.34 	"/>
	<path class="st2" d="M94.11,21.16c1.46,0,2.74,0.22,3.85,0.64c1.11,0.43,2.03,0.97,2.77,1.62c0.74,0.64,1.3,1.35,1.68,2.13
		c0.38,0.78,0.59,1.51,0.64,2.21c0.02,0.29-0.06,0.52-0.24,0.7c-0.19,0.18-0.4,0.27-0.64,0.27h-2.28c-0.37,0-0.65-0.08-0.83-0.23
		c-0.19-0.16-0.35-0.36-0.51-0.62c-0.33-0.6-0.82-1.12-1.48-1.56c-0.66-0.44-1.64-0.66-2.95-0.66c-0.57,0-1.1,0.07-1.61,0.2
		c-0.51,0.13-0.95,0.32-1.34,0.57c-0.38,0.25-0.68,0.56-0.9,0.91c-0.22,0.36-0.33,0.76-0.33,1.22c0,0.55,0.1,1,0.31,1.34
		c0.21,0.35,0.56,0.65,1.04,0.89c0.49,0.25,1.13,0.49,1.94,0.7c0.8,0.22,1.8,0.47,2.99,0.75c1.31,0.31,2.43,0.67,3.38,1.09
		c0.94,0.42,1.72,0.92,2.31,1.51c0.6,0.59,1.05,1.26,1.34,2.02c0.29,0.76,0.44,1.64,0.44,2.62c0,1.08-0.22,2.07-0.65,2.99
		c-0.43,0.92-1.05,1.71-1.86,2.37c-0.8,0.66-1.79,1.18-2.96,1.56c-1.18,0.38-2.49,0.57-3.94,0.57c-1.22,0-2.38-0.16-3.49-0.48
		c-1.11-0.33-2.09-0.79-2.95-1.4c-0.86-0.61-1.55-1.34-2.07-2.2c-0.52-0.86-0.82-1.82-0.88-2.87c-0.02-0.29,0.06-0.52,0.24-0.7
		c0.18-0.18,0.4-0.27,0.64-0.27h2.28c0.37,0,0.65,0.07,0.84,0.22c0.2,0.14,0.36,0.36,0.49,0.64c0.15,0.31,0.33,0.62,0.55,0.93
		c0.22,0.31,0.51,0.59,0.88,0.83c0.37,0.24,0.83,0.43,1.38,0.59c0.56,0.15,1.24,0.23,2.07,0.23c0.65,0,1.28-0.06,1.89-0.16
		c0.61-0.11,1.14-0.29,1.6-0.54c0.46-0.25,0.83-0.56,1.11-0.93c0.28-0.37,0.42-0.83,0.42-1.38c0-0.53-0.15-0.96-0.46-1.29
		c-0.3-0.34-0.76-0.62-1.39-0.86c-0.62-0.24-1.38-0.46-2.3-0.68c-0.91-0.22-1.97-0.49-3.16-0.83c-1.09-0.29-2.04-0.62-2.85-1.02
		c-0.81-0.39-1.49-0.88-2.02-1.45c-0.53-0.57-0.93-1.25-1.19-2.03c-0.26-0.78-0.39-1.7-0.39-2.78c0-1.08,0.21-2.07,0.65-2.98
		c0.44-0.91,1.03-1.69,1.8-2.33c0.76-0.64,1.67-1.15,2.72-1.52C91.75,21.34,92.89,21.16,94.11,21.16"/>
	<path class="st2" d="M117.99,22.37c6.8,0,12.15,5.41,12.15,12.31c0,6.91-5.34,12.35-12.15,12.35c-6.81,0-12.15-5.44-12.15-12.35
		C105.84,27.78,111.18,22.37,117.99,22.37 M118.09,42.64c4.53,0,7.69-3.81,7.69-7.95c0-4.14-3.16-7.91-7.69-7.91
		c-4.53,0-7.88,3.78-7.88,7.91C110.2,38.82,113.56,42.64,118.09,42.64"/>
	<path class="st2" d="M151.2,29.02c0,1.53-0.75,2.93-1.59,3.97c1.82,1.53,3.03,3.42,3.03,5.83c0,4.43-3.52,7.79-8.28,7.79h-11.59
		V22.63h11.59C148.27,22.63,151.2,25.37,151.2,29.02 M146.83,29.12c0-1.14-0.94-2.09-2.08-2.09h-7.62v4.17h7.62
		C145.89,31.2,146.83,30.26,146.83,29.12 M148.27,38.83c0-1.86-1.53-3.39-3.39-3.39h-7.75v6.77h7.75
		C146.74,42.21,148.27,40.68,148.27,38.83"/>
	<polygon class="st2" points="159.61,40.94 159.61,46.61 155.25,46.61 155.25,22.63 159.61,22.63 159.61,34.82 171.11,22.63 
		176.88,22.63 168.05,32.08 178.05,46.61 172.71,46.61 165.06,35.47 	"/>
	<rect x="180.02" y="22.63" class="st2" width="4.36" height="23.98"/>
	<path class="st2" d="M196.38,21.16c1.46,0,2.74,0.22,3.85,0.64c1.11,0.43,2.03,0.97,2.77,1.62c0.74,0.64,1.3,1.35,1.68,2.13
		c0.38,0.78,0.59,1.51,0.64,2.21c0.02,0.29-0.06,0.52-0.24,0.7c-0.19,0.18-0.4,0.27-0.64,0.27h-2.28c-0.37,0-0.65-0.08-0.83-0.23
		c-0.18-0.16-0.35-0.36-0.5-0.62c-0.33-0.6-0.82-1.12-1.48-1.56c-0.66-0.44-1.65-0.66-2.95-0.66c-0.57,0-1.1,0.07-1.61,0.2
		c-0.51,0.13-0.96,0.32-1.34,0.57c-0.38,0.25-0.68,0.56-0.9,0.91c-0.22,0.36-0.33,0.76-0.33,1.22c0,0.55,0.1,1,0.31,1.34
		s0.56,0.65,1.04,0.89c0.49,0.25,1.13,0.49,1.94,0.7c0.8,0.22,1.8,0.47,3,0.75c1.3,0.31,2.43,0.67,3.37,1.09
		c0.95,0.42,1.72,0.92,2.31,1.51c0.6,0.59,1.04,1.26,1.34,2.02c0.29,0.76,0.44,1.64,0.44,2.62c0,1.08-0.22,2.07-0.65,2.99
		c-0.43,0.92-1.06,1.71-1.86,2.37c-0.8,0.66-1.79,1.18-2.96,1.56c-1.17,0.38-2.49,0.57-3.94,0.57c-1.22,0-2.38-0.16-3.49-0.48
		c-1.1-0.33-2.09-0.79-2.95-1.4c-0.86-0.61-1.55-1.34-2.07-2.2c-0.52-0.86-0.81-1.82-0.88-2.87c-0.02-0.29,0.06-0.52,0.25-0.7
		c0.18-0.18,0.4-0.27,0.64-0.27h2.28c0.37,0,0.65,0.07,0.85,0.22c0.19,0.14,0.36,0.36,0.49,0.64c0.15,0.31,0.34,0.62,0.56,0.93
		c0.22,0.31,0.51,0.59,0.88,0.83c0.37,0.24,0.83,0.43,1.38,0.59c0.56,0.15,1.24,0.23,2.07,0.23c0.65,0,1.28-0.06,1.89-0.16
		c0.61-0.11,1.14-0.29,1.6-0.54c0.46-0.25,0.83-0.56,1.11-0.93c0.28-0.37,0.42-0.83,0.42-1.38c0-0.53-0.15-0.96-0.46-1.29
		c-0.3-0.34-0.76-0.62-1.39-0.86c-0.62-0.24-1.39-0.46-2.3-0.68c-0.91-0.22-1.96-0.49-3.16-0.83c-1.09-0.29-2.04-0.62-2.85-1.02
		c-0.81-0.39-1.49-0.88-2.02-1.45c-0.53-0.57-0.93-1.25-1.19-2.03c-0.26-0.78-0.39-1.7-0.39-2.78c0-1.08,0.22-2.07,0.65-2.98
		c0.44-0.91,1.03-1.69,1.79-2.33c0.76-0.64,1.67-1.15,2.72-1.52C194.03,21.34,195.16,21.16,196.38,21.16"/>
	<path class="st2" d="M219.45,42.64c4.53,0,6.12-3.81,6.12-7.95V22.63h4.36v12.05c0,6.91-3.78,12.35-10.59,12.35
		c-6.81,0-10.59-5.44-10.59-12.35V22.63h4.36v12.05C213.13,38.82,214.92,42.64,219.45,42.64"/>
	<path class="st3" d="M99.41,60.4c0,1.06-0.52,2.02-1.1,2.74c1.26,1.06,2.09,2.36,2.09,4.03c0,3.06-2.43,5.37-5.71,5.37h-8V55.99h8
		C97.38,55.99,99.41,57.88,99.41,60.4 M96.39,60.47c0-0.79-0.65-1.44-1.44-1.44h-5.26v2.88h5.26C95.74,61.9,96.39,61.25,96.39,60.47
		 M97.38,67.17c0-1.28-1.06-2.34-2.34-2.34h-5.35v4.68h5.35C96.32,69.51,97.38,68.45,97.38,67.17"/>
	<path class="st3" d="M122.39,69.84l-0.99,2.7h-3.24l6.03-16.55h3.22l6.05,16.55h-3.08l-0.99-2.7H122.39z M125.87,60.29l-2.36,6.52
		h4.77L125.87,60.29z"/>
	<polygon class="st3" points="156.18,69.51 164.93,69.51 164.93,72.54 151.23,72.54 151.23,71.42 159.95,59.03 151.23,59.03 
		151.23,55.99 164.93,55.99 164.93,57.14 	"/>
	<path class="st3" d="M186.93,69.84l-0.99,2.7h-3.24l6.03-16.55h3.22l6.05,16.55h-3.08l-0.99-2.7H186.93z M190.42,60.29l-2.36,6.52
		h4.77L190.42,60.29z"/>
	<path class="st3" d="M218.31,72.54h-3.01V55.99h8.28c3.12,0,5.69,2.52,5.69,5.6c0,2.36-1.53,4.38-3.65,5.19l4.32,5.76h-3.82
		l-4.03-5.37h-3.78V72.54z M226.25,61.59c0-1.42-1.15-2.56-2.56-2.56h-5.37v5.11h5.37C225.11,64.13,226.25,63.01,226.25,61.59"/>
	<polyline class="st2" points="79.24,5 79.24,80.95 78.52,80.95 78.52,5 	"/>
	<path class="st2" d="M71.88,8.69c0,1.71-1.38,3.09-3.09,3.09c-1.7,0-3.09-1.38-3.09-3.09c0-1.7,1.38-3.09,3.09-3.09
		C70.5,5.6,71.88,6.99,71.88,8.69"/>
	<path class="st2" d="M16.07,93.62l-0.58,1.31h-1.04L17,89.16h1.04l2.55,5.77h-1.04l-0.58-1.31H16.07z M18.57,92.72l-1.05-2.38
		l-1.05,2.38H18.57z"/>
	<polygon class="st2" points="29.13,90.05 29.13,94.93 28.16,94.93 28.16,90.05 26.4,90.05 26.4,89.16 30.88,89.16 30.88,90.05 	"/>
	<path class="st2" d="M38.2,91.04c0,0.95-0.41,1.55-1.25,1.8l1.51,2.1h-1.24l-1.38-1.94h-1.28v1.94h-0.97v-5.77h2.15
		c0.88,0,1.51,0.15,1.89,0.45C38.01,89.91,38.2,90.38,38.2,91.04 M36.9,91.85c0.2-0.17,0.3-0.45,0.3-0.82c0-0.38-0.1-0.64-0.3-0.78
		c-0.21-0.14-0.57-0.21-1.09-0.21h-1.24v2.07h1.21C36.33,92.11,36.7,92.02,36.9,91.85"/>
	<path class="st2" d="M42.55,93.61c0.26,0.31,0.62,0.46,1.07,0.46s0.81-0.15,1.07-0.46c0.26-0.31,0.4-0.73,0.4-1.26v-3.2h0.97v3.24
		c0,0.83-0.23,1.47-0.68,1.92c-0.46,0.45-1.04,0.68-1.76,0.68s-1.3-0.23-1.76-0.68c-0.46-0.45-0.68-1.09-0.68-1.92v-3.24h0.97v3.2
		C42.15,92.89,42.29,93.3,42.55,93.61"/>
	<path class="st2" d="M51,89.92c-0.28,0-0.52,0.06-0.7,0.18c-0.18,0.11-0.27,0.29-0.27,0.52c0,0.24,0.09,0.41,0.27,0.54
		c0.18,0.13,0.57,0.26,1.16,0.4c0.59,0.14,1.04,0.35,1.34,0.6c0.3,0.26,0.45,0.64,0.45,1.14c0,0.51-0.19,0.91-0.57,1.23
		C52.3,94.84,51.8,95,51.18,95c-0.9,0-1.7-0.31-2.4-0.93l0.61-0.73c0.58,0.51,1.19,0.76,1.82,0.76c0.31,0,0.56-0.07,0.75-0.2
		c0.18-0.14,0.28-0.32,0.28-0.54c0-0.22-0.09-0.4-0.26-0.52c-0.17-0.13-0.47-0.24-0.89-0.34c-0.43-0.1-0.75-0.19-0.97-0.28
		c-0.22-0.09-0.41-0.2-0.59-0.33c-0.34-0.26-0.51-0.65-0.51-1.19c0-0.53,0.19-0.94,0.58-1.23c0.39-0.29,0.87-0.43,1.44-0.43
		c0.37,0,0.73,0.06,1.1,0.18c0.36,0.12,0.68,0.29,0.94,0.51l-0.52,0.74c-0.17-0.15-0.4-0.28-0.7-0.38
		C51.57,89.97,51.28,89.92,51,89.92"/>
	<polygon class="st2" points="58.29,90.05 58.29,94.93 57.31,94.93 57.31,90.05 55.56,90.05 55.56,89.16 60.04,89.16 60.04,90.05 	
		"/>
	<polygon class="st2" points="66.8,89.16 66.8,90.08 63.72,90.08 63.72,91.61 66.49,91.61 66.49,92.47 63.72,92.47 63.72,94.02 
		66.9,94.02 66.9,94.93 62.75,94.93 62.75,89.16 	"/>
	<path class="st2" d="M74.17,89.92c0.56,0.5,0.83,1.2,0.83,2.1c0,0.9-0.27,1.61-0.81,2.13c-0.54,0.52-1.37,0.78-2.48,0.78H69.8
		v-5.77h1.98C72.82,89.16,73.61,89.41,74.17,89.92 M74.02,92.04c0-1.32-0.76-1.98-2.27-1.98h-0.97v3.96h1.08
		c0.7,0,1.23-0.17,1.61-0.5C73.83,93.18,74.02,92.69,74.02,92.04"/>
	<polygon class="st2" points="85.88,89.16 85.88,90.08 82.8,90.08 82.8,91.61 85.57,91.61 85.57,92.47 82.8,92.47 82.8,94.02 
		85.98,94.02 85.98,94.93 81.83,94.93 81.83,89.16 	"/>
	<path class="st2" d="M91.52,94.05c0.33,0,0.62-0.06,0.87-0.17c0.24-0.11,0.5-0.29,0.76-0.54l0.63,0.64
		C93.16,94.66,92.42,95,91.54,95c-0.87,0-1.6-0.28-2.17-0.84c-0.58-0.56-0.86-1.27-0.86-2.13c0-0.86,0.29-1.58,0.88-2.15
		c0.59-0.57,1.32-0.86,2.22-0.86c0.89,0,1.64,0.33,2.24,0.99l-0.62,0.68c-0.28-0.26-0.54-0.45-0.78-0.55
		c-0.24-0.1-0.53-0.16-0.86-0.16c-0.58,0-1.07,0.19-1.47,0.57c-0.4,0.38-0.59,0.86-0.59,1.45c0,0.59,0.2,1.08,0.59,1.47
		C90.51,93.85,90.98,94.05,91.52,94.05"/>
	<path class="st2" d="M101.32,94.14c-0.58,0.57-1.31,0.85-2.17,0.85c-0.86,0-1.58-0.28-2.16-0.85c-0.59-0.57-0.88-1.28-0.88-2.13
		c0-0.85,0.29-1.56,0.88-2.13c0.58-0.57,1.3-0.85,2.16-0.85c0.86,0,1.58,0.29,2.17,0.85c0.58,0.57,0.88,1.28,0.88,2.13
		C102.19,92.86,101.9,93.57,101.32,94.14 M100.6,90.52c-0.39-0.41-0.88-0.61-1.45-0.61s-1.06,0.2-1.45,0.61
		c-0.39,0.41-0.59,0.9-0.59,1.48c0,0.58,0.2,1.07,0.59,1.48c0.39,0.41,0.88,0.61,1.45,0.61s1.06-0.2,1.45-0.61
		c0.39-0.41,0.59-0.9,0.59-1.48C101.19,91.42,101,90.93,100.6,90.52"/>
	<polygon class="st2" points="106.05,94.93 105.08,94.93 105.08,89.16 106.6,89.16 108.34,92.79 110.08,89.16 111.59,89.16 
		111.59,94.93 110.62,94.93 110.62,90.42 108.6,94.43 108.06,94.43 106.05,90.42 	"/>
	<polygon class="st2" points="115.82,94.93 114.85,94.93 114.85,89.16 116.37,89.16 118.11,92.79 119.85,89.16 121.36,89.16 
		121.36,94.93 120.39,94.93 120.39,90.42 118.37,94.43 117.83,94.43 115.82,90.42 	"/>
	<polygon class="st2" points="128.67,89.16 128.67,90.08 125.59,90.08 125.59,91.61 128.36,91.61 128.36,92.47 125.59,92.47 
		125.59,94.02 128.77,94.02 128.77,94.93 124.62,94.93 124.62,89.16 	"/>
	<path class="st2" d="M136.28,91.04c0,0.95-0.42,1.55-1.25,1.8l1.51,2.1h-1.24l-1.38-1.94h-1.28v1.94h-0.97v-5.77h2.15
		c0.88,0,1.51,0.15,1.89,0.45C136.09,89.91,136.28,90.38,136.28,91.04 M134.98,91.85c0.2-0.17,0.3-0.45,0.3-0.82
		c0-0.38-0.1-0.64-0.3-0.78c-0.21-0.14-0.57-0.21-1.09-0.21h-1.24v2.07h1.21C134.41,92.11,134.79,92.02,134.98,91.85"/>
	<path class="st2" d="M141.97,94.05c0.34,0,0.62-0.06,0.87-0.17c0.24-0.11,0.5-0.29,0.76-0.54l0.63,0.64
		C143.62,94.66,142.87,95,142,95c-0.88,0-1.6-0.28-2.17-0.84c-0.57-0.56-0.86-1.27-0.86-2.13c0-0.86,0.29-1.58,0.88-2.15
		c0.59-0.57,1.33-0.86,2.22-0.86c0.89,0,1.64,0.33,2.24,0.99l-0.62,0.68c-0.28-0.26-0.53-0.45-0.78-0.55
		c-0.24-0.1-0.53-0.16-0.86-0.16c-0.58,0-1.07,0.19-1.47,0.57c-0.4,0.38-0.59,0.86-0.59,1.45c0,0.59,0.2,1.08,0.59,1.47
		C140.96,93.85,141.43,94.05,141.97,94.05"/>
	<polygon class="st2" points="151.12,89.16 151.12,90.08 148.04,90.08 148.04,91.61 150.81,91.61 150.81,92.47 148.04,92.47 
		148.04,94.02 151.22,94.02 151.22,94.93 147.07,94.93 147.07,89.16 	"/>
	<polygon class="st2" points="159.01,94.93 158.04,94.93 158.04,89.16 159.55,89.16 161.3,92.79 163.04,89.16 164.55,89.16 
		164.55,94.93 163.58,94.93 163.58,90.42 161.56,94.43 161.02,94.43 159.01,90.42 	"/>
	<path class="st2" d="M168.63,93.62l-0.58,1.31h-1.04l2.54-5.77h1.04l2.55,5.77h-1.04l-0.58-1.31H168.63z M171.12,92.72l-1.05-2.38
		l-1.05,2.38H171.12z"/>
	<path class="st2" d="M180.2,91.04c0,0.95-0.42,1.55-1.25,1.8l1.51,2.1h-1.24l-1.38-1.94h-1.28v1.94h-0.97v-5.77h2.15
		c0.88,0,1.51,0.15,1.89,0.45C180.01,89.91,180.2,90.38,180.2,91.04 M178.9,91.85c0.2-0.17,0.3-0.45,0.3-0.82
		c0-0.38-0.1-0.64-0.3-0.78c-0.21-0.14-0.57-0.21-1.09-0.21h-1.24v2.07h1.21C178.33,92.11,178.7,92.02,178.9,91.85"/>
	<polygon class="st2" points="183.25,89.16 184.23,89.16 184.23,91.98 186.87,89.16 188.11,89.16 185.79,91.69 188.14,94.93 
		186.99,94.93 185.07,92.41 184.23,93.32 184.23,94.93 183.25,94.93 	"/>
	<polygon class="st2" points="194.77,89.16 194.77,90.08 191.69,90.08 191.69,91.61 194.46,91.61 194.46,92.47 191.69,92.47 
		191.69,94.02 194.87,94.02 194.87,94.93 190.72,94.93 190.72,89.16 	"/>
	<polygon class="st2" points="199.95,90.05 199.95,94.93 198.98,94.93 198.98,90.05 197.23,90.05 197.23,89.16 201.71,89.16 
		201.71,90.05 	"/>
	<path class="st2" d="M208.31,89.66c0.4,0.34,0.6,0.86,0.6,1.55c0,0.7-0.21,1.21-0.62,1.54c-0.41,0.33-1.04,0.49-1.89,0.49h-1.02
		v1.69h-0.97v-5.77h1.98C207.27,89.16,207.91,89.33,208.31,89.66 M207.62,92.05c0.19-0.21,0.29-0.51,0.29-0.91
		c0-0.4-0.12-0.68-0.37-0.85c-0.25-0.17-0.64-0.25-1.16-0.25h-0.99v2.31h1.13C207.06,92.36,207.43,92.25,207.62,92.05"/>
	<polygon class="st2" points="211.72,94.93 211.72,89.16 212.69,89.16 212.69,94.01 215.32,94.01 215.32,94.93 	"/>
	<path class="st2" d="M218.86,93.62l-0.58,1.31h-1.04l2.54-5.77h1.04l2.55,5.77h-1.04l-0.58-1.31H218.86z M221.35,92.72l-1.05-2.38
		l-1.05,2.38H221.35z"/>
	<path class="st2" d="M228.46,94.05c0.34,0,0.62-0.06,0.87-0.17c0.24-0.11,0.5-0.29,0.76-0.54l0.63,0.64
		c-0.61,0.68-1.35,1.01-2.23,1.01c-0.88,0-1.6-0.28-2.17-0.84c-0.57-0.56-0.86-1.27-0.86-2.13c0-0.86,0.29-1.58,0.88-2.15
		c0.59-0.57,1.33-0.86,2.22-0.86s1.64,0.33,2.24,0.99l-0.62,0.68c-0.28-0.26-0.53-0.45-0.78-0.55c-0.24-0.1-0.53-0.16-0.86-0.16
		c-0.58,0-1.07,0.19-1.47,0.57c-0.4,0.38-0.59,0.86-0.59,1.45c0,0.59,0.2,1.08,0.59,1.47C227.45,93.85,227.92,94.05,228.46,94.05"/>
	<polygon class="st2" points="237.61,89.16 237.61,90.08 234.53,90.08 234.53,91.61 237.29,91.61 237.29,92.47 234.53,92.47 
		234.53,94.02 237.71,94.02 237.71,94.93 233.55,94.93 233.55,89.16 	"/>
</g>
</svg>
